# xmcd
#
# Track frame offsets:
#	150
#	16685
#	32435
#	50835
#	66852
#	84305
#	101337
#	117707
#	130202
#	149732
#
# Disc length: 2167 seconds
#
# Revision: 3
# Processed by: cddbd v1.5.2PL0 Copyright (c) Steve Scherf et al.
# Submitted via: EZCDAudioConverter 6.0.5.1
#
DISCID=8808750a
DTITLE=Steve Wariner - Greatest Hits Volume II
DYEAR=1991
DGENRE=Country
TTITLE0=Baby I'm Yours
TTITLE1=I Should Be With You
TTITLE2=Hold On (A Little Longer)
TTITLE3=Where Did I Go Wrong
TTITLE4=I Got Dreams
TTITLE5=When I Could Come Home To You
TTITLE6=The Domino Theory
TTITLE7=Precious Thing
TTITLE8=There For Awhile
TTITLE9=L-O-V-E, Love
EXTD=
EXTT0=
EXTT1=
EXTT2=
EXTT3=
EXTT4=
EXTT5=
EXTT6=
EXTT7=
EXTT8=
EXTT9=
PLAYORDER=
